<mxfile host="app.diagrams.net" modified="2024-06-27T18:44:33.181Z" agent="Mozilla/5.0 (X11; Linux x86_64) AppleWebKit/537.36 (KHTML, like Gecko) Chrome/126.0.0.0 Safari/537.36" version="24.6.4" etag="jEMVk5ZAhnfx-9Ta0mD3" type="github">
  <diagram name="Page-1" id="UoUQso7cRGB70SONquGK">
    <mxGraphModel>
      <root>
        <mxCell id="0" />
        <mxCell id="1" parent="0" />
      </root>
    </mxGraphModel>
  </diagram>
</mxfile>
